<?xml version="1.0" encoding="UTF-8"?>
<!DOCTYPE svg PUBLIC "-//W3C//DTD SVG 1.1//EN" "http://www.w3.org/Graphics/SVG/1.1/DTD/svg11.dtd">
<!-- Creator: CorelDRAW X5 -->
<svg xmlns="http://www.w3.org/2000/svg" xml:space="preserve" width="210mm" height="62.303mm" style="shape-rendering:geometricPrecision; text-rendering:geometricPrecision; image-rendering:optimizeQuality; fill-rule:evenodd; clip-rule:evenodd"
viewBox="0 0 21000 6230"
 xmlns:xlink="http://www.w3.org/1999/xlink">
 <defs>
  <style type="text/css">
   <![CDATA[
    .str0 {stroke:#332C2B;stroke-width:7.62}
    .fil0 {fill:none}
    .fil2 {fill:#F08519}
    .fil1 {fill:#00716A}
    .fil4 {fill:#ED1C24}
    .fil3 {fill:#00716A;fill-rule:nonzero}
   ]]>
  </style>
 </defs>
<symbol id="format_x0020_logo_x0020_utk_x0020_jpg" viewBox="1164 -6633 18672 19496">
 <rect class="fil0 str0" x="1168" y="-6629" width="18665" height="19488"/>
</symbol>
 <g id="Layer_x0020_1">
  <metadata id="CorelCorpID_0Corel-Layer"/>
  <path class="fil1" d="M3966 2800c-21,-157 69,-624 115,-787 34,-122 72,-222 116,-332 26,-66 121,-249 158,-286 50,52 131,219 168,305 155,365 223,786 227,1195l-784 -96zm-2619 97c3,-286 39,-590 109,-850 34,-126 72,-238 120,-351 37,-86 117,-249 166,-301 93,92 237,473 275,622 42,163 135,624 113,780l-784 99zm1173 -130c-4,-202 23,-441 47,-640 46,-373 133,-740 262,-1085 33,-90 166,-393 219,-446 23,23 101,173 121,216 113,245 191,474 257,747 79,328 158,870 151,1208 -459,-27 -598,-27 -1057,0zm-246 -1133l-106 -223c-51,-100 -124,-219 -189,-306 -25,-34 -50,-63 -74,-94 -22,-28 -139,-156 -162,-170l-214 230c-153,208 -251,369 -353,639 -143,379 -217,790 -218,1243l-479 79c-74,12 -443,68 -478,87 107,7 260,-9 371,-14 1423,-62 2792,-65 4218,-38 374,7 758,22 1132,38 113,5 268,21 377,14 -36,-19 -401,-74 -474,-87l-484 -79c-1,-589 -146,-1257 -458,-1721l-111 -159c-44,-61 -162,-192 -216,-233 -23,14 -140,141 -162,170 -23,31 -46,57 -72,91 -62,81 -144,216 -192,310 -19,37 -37,72 -55,109 -17,37 -31,79 -51,114 -23,-76 -41,-162 -62,-239 -64,-227 -144,-455 -242,-664 -85,-183 -212,-411 -332,-564l-117 -146c-12,-14 -7,-11 -22,-20l-103 118c-58,76 -103,137 -156,221 -208,335 -344,662 -453,1051 -22,79 -40,166 -63,244z"/>
  <path class="fil2" d="M1743 5390c32,-24 53,-45 81,-81 14,-18 26,-25 42,-42 44,-48 141,-179 179,-236 43,-64 82,-137 123,-210l108 -225c72,319 177,637 303,906 92,198 256,488 400,647 21,23 49,63 71,81 58,-46 215,-275 258,-338 234,-349 418,-866 516,-1296l108 225c90,161 180,308 299,443l126 125c20,-10 70,-68 90,-88 221,-223 369,-509 487,-808 128,-326 232,-896 205,-1292l-388 -2c4,325 -22,622 -93,922 -43,179 -118,399 -203,556l-98 157c-51,-56 -142,-245 -174,-325 -128,-318 -205,-701 -216,-1052 -3,-84 4,-169 1,-255 -26,-7 -358,-7 -392,-1 -3,123 8,244 2,366 -27,619 -138,1271 -394,1825l-132 242 -36 -56c-329,-584 -460,-1329 -491,-2005 -6,-125 6,-246 2,-371l-393 -2c-7,399 1,524 -91,925 -30,133 -74,263 -122,382 -33,81 -125,273 -176,328l-96 -154c-229,-416 -305,-1004 -298,-1482l-389 1c-8,443 59,918 205,1290 65,168 146,354 243,497 76,112 148,217 243,313 20,20 73,81 93,91z"/>
  <path class="fil1" d="M10385 5627l-532 0 0 -1028c0,-218 -12,-358 -34,-422 -23,-64 -60,-113 -112,-149 -52,-36 -114,-53 -187,-53 -93,0 -177,25 -251,76 -74,51 -125,118 -152,201 -28,84 -41,238 -41,463l0 912 -532 0 0 -2017 494 0 0 296c177,-226 399,-339 668,-339 118,0 226,21 324,63 98,43 172,97 222,162 51,66 85,141 105,224 20,84 30,203 30,358l0 1252z"/>
  <polygon class="fil1" points="11079,5627 11079,3970 10583,3970 10583,3580 12148,3580 12148,3970 11631,3970 11631,5627 "/>
  <path class="fil1" d="M14345 3610l502 0 0 275c180,-212 395,-318 644,-318 132,0 247,27 344,80 98,53 177,133 239,241 91,-108 189,-188 294,-241 105,-53 217,-80 337,-80 152,0 280,30 385,90 105,60 183,148 235,265 38,85 56,225 56,417l0 1287 -546 0 0 -1151c0,-200 -19,-329 -56,-387 -51,-76 -129,-114 -234,-114 -76,0 -149,23 -217,68 -67,46 -116,113 -146,200 -30,88 -45,227 -45,416l0 967 -546 0 0 -1104c0,-196 -10,-323 -29,-379 -19,-57 -49,-100 -90,-128 -41,-28 -96,-41 -166,-41 -84,0 -160,22 -227,66 -68,45 -116,108 -145,192 -29,84 -44,222 -44,415l0 979 -546 0 0 -2017z"/>
  <path class="fil3" d="M7735 4722l-207 0c-88,0 -162,7 -224,19 -62,13 -112,32 -151,59 -39,26 -67,57 -85,94 -18,37 -27,79 -27,126 0,81 26,145 77,190 51,46 122,69 212,69 76,0 146,-19 210,-58 64,-39 129,-96 195,-171l0 -328zm535 827c0,20 -7,35 -21,47 -15,12 -38,20 -69,25 -31,5 -77,7 -138,7 -65,0 -112,-2 -142,-7 -30,-5 -51,-13 -63,-25 -13,-12 -18,-27 -18,-47l0 -153c-80,85 -170,150 -271,198 -101,47 -214,71 -338,71 -102,0 -196,-13 -282,-40 -86,-27 -159,-66 -222,-119 -63,-53 -111,-118 -146,-195 -35,-78 -52,-169 -52,-272 0,-113 22,-210 66,-293 44,-83 110,-151 197,-206 87,-54 195,-94 324,-119 129,-26 279,-39 450,-39l188 0 0 -116c0,-60 -6,-114 -18,-159 -12,-45 -32,-83 -60,-114 -28,-30 -65,-52 -112,-67 -46,-14 -105,-21 -173,-21 -91,0 -172,10 -243,30 -72,20 -134,43 -189,67 -55,24 -100,47 -137,67 -37,20 -66,30 -89,30 -16,0 -30,-5 -42,-15 -13,-10 -23,-25 -30,-44 -8,-18 -14,-42 -18,-69 -4,-27 -7,-58 -7,-90 0,-45 4,-80 11,-106 7,-26 21,-49 41,-70 21,-21 55,-44 106,-69 50,-25 109,-49 177,-70 68,-22 142,-40 221,-53 80,-14 163,-21 248,-21 151,0 280,15 388,44 107,29 195,75 264,136 69,61 120,140 152,237 32,96 47,211 47,343l0 1297z"/>
  <path class="fil3" d="M13537 4722l-207 0c-88,0 -162,7 -224,19 -62,13 -112,32 -151,59 -39,26 -67,57 -85,94 -18,37 -27,79 -27,126 0,81 26,145 77,190 51,46 122,69 212,69 76,0 146,-19 210,-58 64,-39 129,-96 195,-171l0 -328zm535 827c0,20 -7,35 -21,47 -15,12 -38,20 -69,25 -31,5 -77,7 -138,7 -65,0 -112,-2 -142,-7 -29,-5 -51,-13 -63,-25 -13,-12 -18,-27 -18,-47l0 -153c-80,85 -170,150 -271,198 -101,47 -214,71 -338,71 -102,0 -196,-13 -282,-40 -86,-27 -159,-66 -222,-119 -63,-53 -111,-118 -146,-195 -35,-78 -52,-169 -52,-272 0,-113 22,-210 66,-293 44,-83 110,-151 197,-206 87,-54 195,-94 324,-119 129,-26 279,-39 450,-39l188 0 0 -116c0,-60 -6,-114 -18,-159 -12,-45 -32,-83 -60,-114 -28,-30 -65,-52 -112,-67 -46,-14 -105,-21 -173,-21 -91,0 -172,10 -243,30 -72,20 -134,43 -189,67 -55,24 -100,47 -137,67 -37,20 -66,30 -89,30 -16,0 -30,-5 -42,-15 -13,-10 -23,-25 -30,-44 -8,-18 -14,-42 -18,-69 -4,-27 -7,-58 -7,-90 0,-45 4,-80 11,-106 7,-26 21,-49 41,-70 21,-21 55,-44 106,-69 50,-25 109,-49 177,-70 68,-22 142,-40 221,-53 80,-14 163,-21 248,-21 151,0 280,15 388,44 107,29 195,75 264,136 69,61 120,140 152,237 32,96 47,211 47,343l0 1297z"/>
  <path class="fil4" d="M19678 1630c196,0 383,43 550,120l-108 201c-135,-60 -285,-93 -442,-93l0 157c432,0 795,292 904,690l-239 0c-100,-270 -360,-462 -665,-462 -392,0 -710,318 -710,710 0,392 318,710 710,710 305,0 565,-192 665,-462l239 0c-109,397 -472,690 -904,690l0 157c193,0 374,-50 531,-137l166 166c-202,126 -441,199 -697,199 -730,0 -1322,-592 -1322,-1322 0,-730 592,-1322 1322,-1322zm823 1225c54,0 97,44 97,97 0,54 -44,97 -97,97 -54,0 -97,-44 -97,-97 0,-54 44,-97 97,-97zm-73 -935c54,0 97,44 97,97 0,54 -44,97 -97,97 -54,0 -97,-44 -97,-97 0,-54 44,-97 97,-97zm43 1842c54,0 97,44 97,97 0,54 -44,97 -97,97 -54,0 -97,-44 -97,-97 0,-54 44,-97 97,-97zm254 -1617c172,223 275,503 275,807 0,314 -109,602 -292,829l-162 -162c142,-185 227,-416 227,-667 0,-241 -78,-464 -210,-645l162 -162z"/>
 </g>
</svg>
