<?xml version="1.0" encoding="UTF-8" standalone="no"?>
<svg
   xmlns:dc="http://purl.org/dc/elements/1.1/"
   xmlns:cc="http://creativecommons.org/ns#"
   xmlns:rdf="http://www.w3.org/1999/02/22-rdf-syntax-ns#"
   xmlns:svg="http://www.w3.org/2000/svg"
   xmlns="http://www.w3.org/2000/svg"
   xmlns:sodipodi="http://sodipodi.sourceforge.net/DTD/sodipodi-0.dtd"
   xmlns:inkscape="http://www.inkscape.org/namespaces/inkscape"
   version="1.1"
   id="svg2"
   xml:space="preserve"
   width="257.612"
   height="257.612"
   viewBox="0 0 257.612 257.612"
   sodipodi:docname="Xiaomi_logo.ai"><metadata
     id="metadata8"><rdf:RDF><cc:Work
         rdf:about=""><dc:format>image/svg+xml</dc:format><dc:type
           rdf:resource="http://purl.org/dc/dcmitype/StillImage" /></cc:Work></rdf:RDF></metadata><defs
     id="defs6"><clipPath
       clipPathUnits="userSpaceOnUse"
       id="clipPath18"><path
         d="M 0,193.209 H 193.209 V 0 H 0 Z"
         id="path16" /></clipPath></defs><sodipodi:namedview
     pagecolor="#ffffff"
     bordercolor="#666666"
     borderopacity="1"
     objecttolerance="10"
     gridtolerance="10"
     guidetolerance="10"
     inkscape:pageopacity="0"
     inkscape:pageshadow="2"
     inkscape:window-width="640"
     inkscape:window-height="480"
     id="namedview4" /><g
     id="g10"
     inkscape:groupmode="layer"
     inkscape:label="Xiaomi_logo"
     transform="matrix(1.3333333,0,0,-1.3333333,0,257.612)"><g
       id="g12"><g
         id="g14"
         clip-path="url(#clipPath18)"><g
           id="g20"
           transform="translate(123.3015,4e-4)"><path
             d="m 0,0 h -53.395 c -38.608,0 -69.906,31.298 -69.906,69.906 v 53.395 c 0,38.609 31.298,69.907 69.906,69.907 H 0 c 38.608,0 69.907,-31.298 69.907,-69.907 V 69.906 C 69.907,31.298 38.608,0 0,0"
             style="fill:#ec671b;fill-opacity:1;fill-rule:evenodd;stroke:none"
             id="path22" /></g><g
           id="g24"
           transform="translate(157.3572,133.7065)"><path
             d="m 0,0 h -16.821 c -0.721,0 -1.304,-0.573 -1.304,-1.279 v -76.755 c 0,-0.699 0.583,-1.273 1.304,-1.273 H 0 c 0.714,0 1.306,0.574 1.306,1.273 V -1.279 C 1.306,-0.573 0.714,0 0,0"
             style="fill:#ffffff;fill-opacity:1;fill-rule:nonzero;stroke:none"
             id="path26" /></g><g
           id="g28"
           transform="translate(99.9216,133.7065)"><path
             d="m 0,0 h -64.076 c -0.72,0 -1.299,-0.573 -1.299,-1.279 v -76.755 c 0,-0.699 0.579,-1.273 1.299,-1.273 h 16.826 c 0.715,0 1.309,0.574 1.309,1.273 v 60.242 c 0,0.695 0.579,1.272 1.299,1.272 h 36.244 c 10.192,0 13.085,-7.806 13.085,-12.842 v -48.672 c 0,-0.699 0.585,-1.273 1.306,-1.273 h 16.816 c 0.715,0 1.303,0.574 1.303,1.273 v 54.451 c 0,4.491 -0.541,10.949 -6.335,16.634 C 11.714,-1.015 6.184,0 0,0"
             style="fill:#ffffff;fill-opacity:1;fill-rule:nonzero;stroke:none"
             id="path30" /></g><g
           id="g32"
           transform="translate(88.135,103.1352)"><path
             d="m 0,0 h -17.665 c -0.72,0 -1.311,-0.573 -1.311,-1.275 v -46.194 c 0,-0.698 0.591,-1.27 1.311,-1.27 H 0 c 0.714,0 1.299,0.572 1.299,1.27 V -1.275 C 1.299,-0.573 0.714,0 0,0"
             style="fill:#ffffff;fill-opacity:1;fill-rule:nonzero;stroke:none"
             id="path34" /></g></g></g></g></svg>
